<?xml version="1.0" encoding="UTF-8"?>
<svg id="_레이어_1" data-name="레이어_1" xmlns="http://www.w3.org/2000/svg" version="1.1" viewBox="0 0 375.7 344.4">
  <!-- Generator: Adobe Illustrator 29.4.0, SVG Export Plug-In . SVG Version: 2.1.0 Build 152)  -->
  <defs>
    <style>
      .st0 {
        fill: #f40084;
      }
    </style>
  </defs>
  <g>
    <path class="st0" d="M266.9,242.2c-.3,0-.5,0-.8-.1l-79.5-24.3c-1.4-.4-2.1-1.9-1.7-3.3s1.9-2.2,3.3-1.7l77,23.6,23.8-77.7c.4-1.4,1.9-2.1,3.3-1.7l4.4,1.3,3.2-10.4-95.9-29.3-3.7,12.2,4,1.2c1.4.4,2.1,1.9,1.7,3.3l-18.4,60.3c-.4,1.4-1.9,2.1-3.3,1.7-1.4-.4-2.1-1.9-1.7-3.3l17.7-57.8-4-1.2c-1.4-.4-2.1-1.9-1.7-3.3l5.3-17.2c.2-.7.7-1.2,1.3-1.5.6-.3,1.3-.4,2-.2l100.9,30.9c.7.2,1.2.7,1.5,1.3.3.6.4,1.3.2,2l-4.7,15.3c-.4,1.4-1.9,2.1-3.3,1.7l-4.4-1.3-23.8,77.7c-.2.7-.7,1.2-1.3,1.5-.4.2-.8.3-1.2.3Z"/>
    <path class="st0" d="M233.1,222.5c-.3,0-.5,0-.8-.1l-14.2-4.4c-1.4-.4-2.1-1.9-1.7-3.3l20.6-67.2c.4-1.4,1.9-2.1,3.3-1.7l14.2,4.4c.7.2,1.2.7,1.5,1.3.3.6.4,1.3.2,2l-20.6,67.2c-.2.7-.7,1.2-1.3,1.5-.4.2-.8.3-1.2.3ZM222.1,213.9l9.2,2.8,19-62.2-9.2-2.8-19,62.2Z"/>
    <path class="st0" d="M207.7,214.8c-.3,0-.5,0-.8-.1l-14.2-4.4c-1.4-.4-2.1-1.9-1.7-3.3l20.6-67.2c.2-.7.7-1.2,1.3-1.5.6-.3,1.3-.4,2-.2l14.2,4.4c.7.2,1.2.7,1.5,1.3.3.6.4,1.3.2,2l-20.6,67.2c-.2.7-.7,1.2-1.3,1.5-.4.2-.8.3-1.2.3ZM196.7,206.1l9.2,2.8,19-62.2-9.2-2.8-19,62.2Z"/>
    <path class="st0" d="M258.4,230.3c-.3,0-.5,0-.8-.1l-14.2-4.4c-.7-.2-1.2-.7-1.5-1.3-.3-.6-.4-1.3-.2-2l20.6-67.2c.2-.7.7-1.2,1.3-1.5.6-.3,1.3-.4,2-.2l14.2,4.4c1.4.4,2.1,1.9,1.7,3.3l-20.6,67.2c-.3,1.1-1.4,1.8-2.5,1.8ZM247.4,221.6l9.2,2.8,19-62.2-9.2-2.8-19,62.2Z"/>
    <path class="st0" d="M287,245.2c-.3,0-.5,0-.8-.1l-19.2-5.9c-1.4-.4-2.1-1.9-1.7-3.3l6.6-21.5c.4-1.4,1.9-2.2,3.3-1.7l5.2,1.6,7.1-23.4-5.2-1.6c-.7-.2-1.2-.7-1.5-1.3-.3-.6-.4-1.3-.2-2l6.5-21.3c.2-.7.7-1.2,1.3-1.5s1.3-.4,2-.2l19.6,6c.7.2,1.2.7,1.5,1.3l6.5,12.2c.3.6.4,1.3.2,2l-15.9,52c-.2.7-.7,1.2-1.3,1.5l-12.7,6.7c-.4.2-.8.3-1.2.3ZM271,235l15.7,4.8,10.8-5.7,15.3-50-5.4-10.3-16.1-4.9-5,16.3,5.2,1.6c.7.2,1.2.7,1.5,1.3.3.6.4,1.3.2,2l-8.7,28.3c-.4,1.4-1.9,2.1-3.3,1.7l-5.2-1.6-5,16.5Z"/>
    <path class="st0" d="M301.2,148.2c-.3,0-.5,0-.8-.1l-95.6-29.3c-4.1-.8-7.6-3.2-9.5-6.7-1.5-2.7-1.9-5.6-1-8.1,1.3-3.7,5.5-6.2,10.3-6.4,4.4-5.8,11.1-8.8,17.4-7.8,3.3.5,5.8,2,7.7,3.5,3.5-1.9,10.4-4.7,18.6-2.5,6.5,1.7,10.7,5.8,12.9,8.4,7.3-1.8,14.6-.1,19.5,4.6,2.4,2.3,3.7,5,4.5,7.4,5-.8,10.1.8,13.5,4.4,3.1,3.3,3.8,7.1,3.9,9.7,4.5,1.3,8,5.2,8.5,10,.7,6-3.3,11.5-9.3,12.8-.2,0-.4,0-.6,0ZM205.3,102.9c-3.2,0-5.6,1.5-6.1,3-.4,1-.1,2.4.6,3.7,1.2,2.1,3.4,3.6,6.1,4.1,0,0,.2,0,.3,0l95,29.1c3-1,5-3.9,4.6-7-.3-3.1-3-5.6-6.2-5.8-.7,0-1.4-.4-1.8-.9s-.7-1.3-.6-2c0-.8.4-4.9-2.4-7.9-2.6-2.8-6.8-3.7-10.7-2.3-.7.2-1.5.2-2.2-.2-.7-.4-1.1-1-1.3-1.8-.4-2-1.3-4.9-3.7-7.3-3.8-3.8-9.9-4.9-16-2.9-1.1.4-2.3,0-3-1-1.2-1.8-4.8-6.2-11.1-7.9-8.2-2.2-14.9,2-16.1,2.9-1,.7-2.4.6-3.3-.3-1.3-1.3-3.4-3-6.4-3.4-4.7-.8-9.9,1.9-13.1,6.7-.5.8-1.4,1.2-2.3,1.2-.2,0-.3,0-.5,0Z"/>
  </g>
  <path class="st0" d="M100.6,254.5c-.5,0-1.1-.2-1.5-.5-.6-.4-.9-1-1-1.7l-12.6-78.3-4.2.7c-.7.1-1.4,0-1.9-.5-.6-.4-.9-1-1-1.7l-2.8-17.7c-.2-1.4.7-2.8,2.2-3h.5c0,0,0,0,0,0l103.7-16.7c.7-.1,1.4,0,1.9.5.6.4.9,1,1,1.7l2.5,15.8c.1.7,0,1.4-.5,1.9-.4.6-1,.9-1.7,1l-4.5.7,12.9,80.2c.2,1.4-.7,2.8-2.2,3l-90.3,14.5c-.1,0-.3,0-.4,0ZM87.6,168.4c.5,0,1.1.2,1.5.5.6.4.9,1,1,1.7l12.6,78.3,85.1-13.7-12.9-80.2c-.1-.7,0-1.4.5-1.9.4-.6,1-.9,1.7-1l4.5-.7-1.7-10.7-99,15.9,2,12.6,4.2-.7c.1,0,.3,0,.4,0Z"/>
  <path class="st0" d="M137.2,239.6c-1.3,0-2.4-.9-2.6-2.2l-11.1-69.4c-.1-.7,0-1.4.5-1.9.4-.6,1-.9,1.7-1l14.7-2.4c1.4-.2,2.8.7,3,2.2l11.1,69.4c.1.7,0,1.4-.5,1.9-.4.6-1,.9-1.7,1l-14.7,2.4c-.1,0-.3,0-.4,0ZM129,169.8l10.3,64.2,9.5-1.5-10.3-64.2-9.5,1.5Z"/>
  <path class="st0" d="M111,243.8c-1.3,0-2.4-.9-2.6-2.2l-11.1-69.4c-.1-.7,0-1.4.5-1.9.4-.6,1-.9,1.7-1l14.7-2.4c1.4-.2,2.8.7,3,2.2l11.1,69.4c.1.7,0,1.4-.5,1.9-.4.6-1,.9-1.7,1l-14.7,2.4c-.1,0-.3,0-.4,0ZM102.9,174l10.3,64.2,9.5-1.5-10.3-64.2-9.5,1.5Z"/>
  <path class="st0" d="M163.4,235.4c-.5,0-1.1-.2-1.5-.5-.6-.4-.9-1-1-1.7l-11.1-69.4c-.2-1.4.7-2.8,2.2-3l14.7-2.4c.7-.1,1.4,0,1.9.5.6.4.9,1,1,1.7l11.1,69.4c.2,1.4-.7,2.8-2.2,3l-14.7,2.4c-.1,0-.3,0-.4,0ZM155.2,165.6l10.3,64.2,9.5-1.5-10.3-64.2-9.5,1.5Z"/>
  <path class="st0" d="M80.4,254.7c-.5,0-1.1-.2-1.5-.5l-11.6-8.4c-.6-.4-.9-1-1-1.7l-8.6-53.7c-.1-.7,0-1.4.5-1.9l8.1-11.2c.4-.6,1-.9,1.7-1l20.3-3.3c.7-.1,1.4,0,1.9.5.6.4.9,1,1,1.7l3.5,21.9c.2,1.4-.7,2.8-2.2,3l-5.4.9,3.9,24.1,5.4-.9c.7-.1,1.4,0,1.9.5.6.4.9,1,1,1.7l3.6,22.2c.2,1.4-.7,2.8-2.2,3l-19.9,3.2c-.1,0-.3,0-.4,0ZM71.2,242.2l9.9,7.2,16.2-2.6-2.7-17-5.4.9c-.7.1-1.4,0-1.9-.5-.6-.4-.9-1-1-1.7l-4.7-29.3c-.2-1.4.7-2.8,2.2-3l5.4-.9-2.7-16.8-16.6,2.7-6.8,9.4,8.3,51.6Z"/>
  <path class="st0" d="M78.1,156.9c-2.8,0-5.4-.8-7.6-2.3-2.6-1.7-4.2-4.2-4.5-6.8-.4-3.9,2.2-8,6.4-10.3,1.4-7.1,6.1-12.8,12.2-14.7,3.2-1,6.1-.8,8.4-.2,2.3-3.3,7.2-8.8,15.6-10.5,6.6-1.3,12.1.5,15.3,1.9,5.8-4.9,13.1-6.6,19.5-4.4,3.2,1.1,5.6,2.9,7.3,4.6,4.1-2.9,9.4-3.8,14-2,4.2,1.6,6.5,4.7,7.8,7,4.7-.8,9.4,1.2,12,5.3,3.2,5.1,2.1,11.8-2.7,15.6-.4.3-.8.5-1.2.5l-98.7,15.9c-1.3.3-2.6.5-3.9.5ZM89.3,127.3c-1,0-2,.1-3.1.5-4.6,1.4-8.1,6-8.8,11.8-.1.9-.7,1.7-1.6,2.1-3.1,1.3-4.8,3.9-4.6,5.6.1,1,1,2.2,2.2,3.1,2,1.4,4.7,1.8,7.3,1,0,0,.2,0,.3,0l98.1-15.8c2.2-2.2,2.7-5.7,1.1-8.3-1.7-2.6-5.2-3.7-8.1-2.5-.7.3-1.4.2-2.1,0-.6-.3-1.1-.8-1.4-1.5-.3-.7-1.8-4.6-5.7-6-3.6-1.3-7.7-.3-10.6,2.6-.5.5-1.3.8-2,.8-.8,0-1.5-.4-1.9-1-1.2-1.6-3.3-3.8-6.5-4.9-5.1-1.7-11.1,0-15.6,4.5-.8.8-2.1,1-3.1.4-1.9-1.1-7.1-3.5-13.4-2.2-8.3,1.7-12.5,8.4-13.2,9.7-.6,1.1-1.9,1.6-3.1,1.2-1.1-.4-2.5-.7-4.1-.7Z"/>
</svg>