<?xml version="1.0" encoding="UTF-8"?>
<svg id="_레이어_1" data-name="레이어_1" xmlns="http://www.w3.org/2000/svg" version="1.1" viewBox="0 0 375.7 344.4">
  <!-- Generator: Adobe Illustrator 29.4.0, SVG Export Plug-In . SVG Version: 2.1.0 Build 152)  -->
  <defs>
    <style>
      .st0 {
        fill: #f40084;
      }
    </style>
  </defs>
  <g>
    <path class="st0" d="M108.1,132.1c-.5,0-.9,0-1.4,0-7.8,0-15.9,0-22.4-3.9h0c-1.7-1-3.3-2.3-4.7-3.8-2.9-3.2-4.9-7.4-5.7-12.2-2.2,0-5.8-.6-8.6-3.6-1.9-2.1-2.9-4.9-2.9-8.4s1.1-6.6,3.1-8.5c2.1-2,4.9-2.6,7.2-2.7,4.2-15,17.8-25.4,33.6-25.4s29.3,10.4,33.6,25.4c2.2,0,5.1.6,7.4,2.6,2.1,1.9,3.2,4.8,3.2,8.6s-1.2,6.9-3.5,9c-2.6,2.4-6,2.9-8.2,2.9-1,5.4-3.4,10-6.9,13.4-6.5,6.3-14.9,6.6-23.8,6.6ZM75.6,108.1c.4,0,.8.1,1.2.4.4.3.7.8.7,1.3.5,4.8,2.2,8.8,5,11.8,1.1,1.2,2.4,2.3,3.8,3.1h0c5.6,3.3,12.8,3.3,20.4,3.4,9.4,0,16.8,0,22.5-5.5,4.1-4,5.6-9.2,6.1-12.9.1-1,1.1-1.8,2.1-1.7.8,0,4.6.3,7-1.9,1.5-1.3,2.2-3.4,2.2-6.1s-.6-4.5-1.9-5.7c-1.8-1.6-4.6-1.7-6.1-1.6-1,0-1.8-.6-2.1-1.5-3.3-14.1-15.7-23.9-30.2-23.9s-26.9,9.8-30.2,23.9c-.2.9-1.1,1.6-2,1.5-1.5-.1-4.2,0-5.9,1.6-1.3,1.2-1.9,3.1-1.9,5.7s.6,4.5,1.8,5.8c2.6,2.9,6.9,2.3,7.1,2.3,0,0,.2,0,.3,0Z"/>
    <path class="st0" d="M109.2,67.1h-7.1c-6.2,0-11.3-5.1-11.3-11.3s5.1-11.3,11.3-11.3h7.1c6.2,0,11.3,5.1,11.3,11.3s-5.1,11.3-11.3,11.3ZM102.1,48.4c-4.1,0-7.4,3.3-7.4,7.4s3.3,7.4,7.4,7.4h7.1c4.1,0,7.4-3.3,7.4-7.4s-3.3-7.4-7.4-7.4h-7.1Z"/>
    <rect class="st0" x="96.5" y="94.4" width="3.2" height="6.4" rx="1.6" ry="1.6"/>
    <rect class="st0" x="111.9" y="94.4" width="3.2" height="6.4" rx="1.6" ry="1.6"/>
    <rect class="st0" x="104.9" y="99.2" width="1.8" height="2.5" rx=".9" ry=".9" transform="translate(250.9 85.3) rotate(130.6)"/>
    <path class="st0" d="M100.3,79.4c-1.1,0-2-.9-2-2v-11.1c0-1.1.9-2,2-2s2,.9,2,2v11.1c0,1.1-.9,2-2,2Z"/>
    <path class="st0" d="M105.7,78.5c-1.1,0-2-.9-2-2v-11.1c0-1.1.9-2,2-2s2,.9,2,2v11.1c0,1.1-.9,2-2,2Z"/>
    <path class="st0" d="M111,79.4c-1.1,0-2-.9-2-2v-11.1c0-1.1.9-2,2-2s2,.9,2,2v11.1c0,1.1-.9,2-2,2Z"/>
    <path class="st0" d="M190.1,156.1c-.5,0-.9,0-1.4,0-9.9,0-20.1,0-27.1-7.7-2.9-3.2-4.9-7.4-5.7-12.2-2.2,0-5.8-.6-8.6-3.6-1.9-2.1-2.9-4.9-2.9-8.4s1.1-6.6,3.1-8.5c2.1-2,4.9-2.6,7.2-2.7,4.2-15,17.8-25.4,33.6-25.4s29.3,10.4,33.6,25.4c2.2,0,5.1.6,7.4,2.6,2.1,1.9,3.2,4.8,3.2,8.6s-1.2,6.9-3.5,9c-2.6,2.4-6,2.9-8.2,2.9-1,5.4-3.4,10-6.9,13.4-6.5,6.3-14.9,6.6-23.8,6.6ZM157.6,132.2c.4,0,.8.1,1.2.4.4.3.7.8.7,1.3.5,4.8,2.2,8.8,5,11.8,5.8,6.4,14.8,6.4,24.2,6.5,9.4,0,16.8,0,22.5-5.5,4.1-4,5.6-9.2,6.1-12.9.1-1,1.1-1.8,2.1-1.7.7,0,4.6.3,7-1.9,1.5-1.3,2.2-3.4,2.2-6.1s-.6-4.5-1.9-5.7c-1.8-1.6-4.6-1.7-6.1-1.6-1,0-1.8-.6-2.1-1.5-3.3-14.1-15.7-23.9-30.2-23.9s-26.9,9.8-30.2,23.9c-.2.9-1.1,1.6-2,1.5-1.5-.1-4.2,0-5.9,1.6-1.3,1.2-1.9,3.1-1.9,5.7s.6,4.5,1.8,5.8c2.6,2.9,6.9,2.3,7.1,2.3,0,0,.2,0,.3,0Z"/>
    <rect class="st0" x="178.5" y="118.4" width="3.2" height="6.4" rx="1.6" ry="1.6"/>
    <rect class="st0" x="193.8" y="118.4" width="3.2" height="6.4" rx="1.6" ry="1.6"/>
    <rect class="st0" x="186.9" y="123.2" width="1.8" height="2.5" rx=".9" ry=".9" transform="translate(404.4 62.8) rotate(130.6)"/>
    <path class="st0" d="M179.5,104.2c-1.1,0-2-.9-2-2v-11.1c0-1.1.9-2,2-2s2,.9,2,2v11.1c0,1.1-.9,2-2,2Z"/>
    <path class="st0" d="M185,103.4c-1.1,0-2-.9-2-2v-11.1c0-1.1.9-2,2-2s2,.9,2,2v11.1c0,1.1-.9,2-2,2Z"/>
    <path class="st0" d="M190.5,103.4c-1.1,0-2-.9-2-2v-11.1c0-1.1.9-2,2-2s2,.9,2,2v11.1c0,1.1-.9,2-2,2Z"/>
    <path class="st0" d="M196,104.2c-1.1,0-2-.9-2-2v-11.1c0-1.1.9-2,2-2s2,.9,2,2v11.1c0,1.1-.9,2-2,2Z"/>
    <path class="st0" d="M271.4,139c-.5,0-.9,0-1.4,0-9.9,0-20.1,0-27.1-7.7-2.9-3.2-4.9-7.4-5.7-12.2-2.2,0-5.8-.6-8.6-3.6-1.9-2.1-2.9-4.9-2.9-8.4s1.1-6.6,3.1-8.5c2.1-2,4.9-2.6,7.2-2.7,4.2-15,17.8-25.4,33.6-25.4s29.3,10.4,33.6,25.4c2.2,0,5.1.6,7.4,2.6,2.1,1.9,3.2,4.8,3.2,8.6s-1.2,6.9-3.5,9c-2.6,2.4-6,2.9-8.2,2.9-1,5.4-3.4,10-6.9,13.4-6.5,6.3-14.9,6.6-23.8,6.6ZM238.9,115c.4,0,.8.1,1.2.4.4.3.7.8.7,1.3.5,4.8,2.2,8.8,5,11.8,5.8,6.4,14.8,6.4,24.2,6.5,9.4,0,16.8,0,22.5-5.5,4.1-4,5.6-9.2,6.1-12.9.1-1,1.1-1.8,2.1-1.7.8,0,4.6.3,7-1.9,1.5-1.3,2.2-3.4,2.2-6.1s-.6-4.5-1.9-5.7c-1.8-1.6-4.6-1.7-6.1-1.6-1,0-1.8-.6-2.1-1.5-3.3-14.1-15.7-23.9-30.2-23.9s-26.9,9.8-30.2,23.9c-.2.9-1.1,1.6-2,1.5-1.5-.1-4.2,0-5.9,1.6-1.3,1.2-1.9,3.1-1.9,5.7s.6,4.5,1.8,5.8c2.7,2.9,6.9,2.3,7.1,2.3,0,0,.2,0,.3,0Z"/>
    <rect class="st0" x="259.8" y="101.3" width="3.2" height="6.4" rx="1.6" ry="1.6"/>
    <rect class="st0" x="275.2" y="101.3" width="3.2" height="6.4" rx="1.6" ry="1.6"/>
    <rect class="st0" x="268.2" y="106.1" width="1.8" height="2.5" rx=".9" ry=".9" transform="translate(525.6 -27.3) rotate(130.6)"/>
    <path class="st0" d="M263.6,86.6c-1.1,0-2-.9-2-2v-11.1c0-1.1.9-2,2-2s2,.9,2,2v11.1c0,1.1-.9,2-2,2Z"/>
    <path class="st0" d="M269,85.4c-1.1,0-2-.9-2-2v-11.1c0-1.1.9-2,2-2s2,.9,2,2v11.1c0,1.1-.9,2-2,2Z"/>
    <path class="st0" d="M274.3,86.6c-1.1,0-2-.9-2-2v-11.1c0-1.1.9-2,2-2s2,.9,2,2v11.1c0,1.1-.9,2-2,2Z"/>
    <path class="st0" d="M210.4,96.4c-3,0-6.1-.7-8.9-2.1-.3-.1-.5-.3-.7-.5-2.9-3.7-3.7-8.1-1.9-11.3,1.7-3.1,5.3-4.2,6.8-4.6,1.7-.5,3.1-.5,5-.6,2.3,0,4,0,4.9.1.2,0,.4,0,.5,0,2.5.1,5.5-1.6,9-5.2.5-.5,1.2-.7,1.9-.5.7.2,1.2.7,1.4,1.4.3,1.1,2.3,10.6-4.5,17.7-3.5,3.7-8.5,5.6-13.6,5.6ZM203.6,91c6.1,2.8,13.3,1.6,17.6-2.9,3.2-3.4,3.9-7.6,3.9-10.5-3.2,2.6-6.2,3.8-9.1,3.7-.2,0-.3,0-.6,0-.9,0-2.4-.2-4.5,0-1.9,0-2.9.1-4.1.5-1.1.3-3.6,1-4.5,2.8-1,1.7-.4,4.3,1.2,6.6Z"/>
    <path class="st0" d="M316.9,133.4c-3.5,0-7.1-.7-10.1-3.1-4.7-3.8-5.6-9.9-5.7-13.2,0-.9.6-1.7,1.5-2,8.6-2,14.4-1.4,17.8,2,.9.9,1.5,1.8,2,2.8.7,1.2,1.5,2.4,3,3.7,1.7,1.4,3.7,2.4,6,3,.8.2,1.4.9,1.5,1.8s-.4,1.6-1.2,1.9c-1.6.7-3.3,1.2-4.9,1.6-2.5.6-6.1,1.5-9.8,1.5ZM305.2,118.6c.3,2.7,1.3,6.3,4.1,8.6,4.5,3.6,11.7,2.1,16,1.1-.8-.5-1.6-1-2.3-1.6-2-1.7-3-3.4-3.8-4.7-.5-.8-.9-1.5-1.5-2-2.5-2.6-7.9-2.2-12.5-1.3Z"/>
    <path class="st0" d="M157.4,300h-48.1c-1,0-1.9-.8-2-1.8-.3-6.1-.7-12.3-1-18.4-.3,6.2-.7,12.3-1,18.4,0,1-.9,1.8-2,1.8h-48.1c-1,0-1.8-.7-1.9-1.7-.3-2.3-.5-6.9,2.2-11.5,3.5-5.9,9.3-7.8,12.3-8.4l1.2-34.6c.4-10.8.7-21.6,1.1-32.5.4-16.6.7-33.3,1.1-50l-18.9,7.7c-1.3,2.3-4,5.8-8.8,7.5-6.4,2.3-13.8.3-18-4.8-4.5-5.5-4.6-13.8-.4-19.7,4.4-6,11.2-6.7,13.7-6.8,6.5-5.6,13.8-10.2,21.7-13.6,8.3-3.5,17.1-5.7,26.1-6.4,1.1,0,2,.7,2.1,1.8,0,1.1-.7,2-1.8,2.1-8.6.7-17,2.7-24.9,6.1-7.8,3.3-14.9,7.8-21.3,13.4-.4.3-.9.5-1.4.5-.3,0-7.2-.3-11.2,5.2-3.3,4.5-3.2,10.8.2,14.9,3.7,4.5,9.6,5,13.6,3.6,4.1-1.5,6.3-4.9,7-6.2.2-.4.6-.7,1-.9l22.3-9.1c.6-.2,1.3-.2,1.8.2s.9,1,.8,1.7c-.4,17.6-.7,35.3-1.1,52.9-.4,10.8-.7,21.7-1.1,32.5l-1.2,36.2c0,1-.8,1.8-1.8,1.9-.8,0-7.6.9-11,6.8-1.6,2.7-1.9,5.3-1.9,7.3h44.5c.7-12.6,1.4-25.5,2.1-38.2.3-5.2.5-10.4.8-15.7,0-1,.9-1.9,2-1.9h0c1,0,1.9.8,2,1.9.3,5.2.5,10.4.8,15.7.7,12.8,1.4,25.6,2.1,38.2h44.5c0-2-.3-4.6-1.9-7.3-3.5-5.9-10.3-6.7-11-6.8-1,0-1.7-.9-1.8-1.9l-2.3-68.6c0-.2,0-.3,0-.5v-51.9c0-1.1.9-2,2-2s2,.9,2,2v52.3c0,.1,0,.3,0,.4l2.2,66.6c3,.6,8.9,2.6,12.3,8.4,2.7,4.6,2.6,9.2,2.2,11.5-.1,1-1,1.7-1.9,1.7Z"/>
    <path class="st0" d="M320.6,300h-48.1c-1,0-1.9-.8-1.9-1.8-.3-6-.7-12-1-18-.3,6-.7,12.1-1,18,0,1-.9,1.8-1.9,1.8h-48.1c-1,0-1.8-.7-1.9-1.7-.3-2.3-.5-6.8,2.2-11.3,3.5-5.7,9.3-7.6,12.3-8.3l2.2-65.1c0-.1,0-.2,0-.4v-53.1c0-1.1.9-2,2-2s2,.9,2,2v52.7c0,.2,0,.3,0,.5l-2.3,67.1c0,1-.8,1.8-1.8,1.9-.8,0-7.6.9-11.1,6.7-1.5,2.6-1.9,5.2-1.8,7.1h44.5c.7-12.3,1.4-24.9,2.1-37.3.3-5.1.5-10.2.8-15.3,0-1,.9-1.9,2-1.9h0c1,0,1.9.8,2,1.9.3,5.1.5,10.2.8,15.3.7,12.4,1.4,24.9,2.1,37.3h44.5c0-1.9-.3-4.5-1.8-7.1-3.5-5.8-10.3-6.6-11.1-6.7-1,0-1.7-.9-1.8-1.9l-1.1-33.6c-.4-11.2-.8-22.4-1.2-33.6-.4-17.3-.7-34.5-1.1-51.8,0-.7.3-1.3.8-1.6.5-.4,1.2-.5,1.8-.2l22.3,8.9c.4.2.8.5,1,.9.7,1.4,2.9,4.7,7,6.1,4,1.4,10,.9,13.7-3.5,3.4-4,3.5-10.1.2-14.5-3.9-5.3-10.9-5.1-11.2-5-.5,0-1-.1-1.4-.5-6.3-5.5-13.5-9.9-21.3-13.1-6.6-2.7-13.5-4.6-20.6-5.5-1.1-.1-1.8-1.1-1.7-2.2.1-1.1,1.1-1.8,2.2-1.7,7.4,1,14.7,2.9,21.6,5.8,7.9,3.3,15.2,7.8,21.7,13.3,2.4,0,9.3.7,13.7,6.6,4.3,5.8,4.1,13.9-.4,19.3-4.2,5-11.5,6.9-17.9,4.7-4.7-1.6-7.5-5.1-8.8-7.3l-18.9-7.5c.4,16.3.7,32.5,1.1,48.8.4,11.2.8,22.3,1.2,33.5l1.1,31.9c3,.6,8.8,2.5,12.3,8.3,2.7,4.5,2.6,9,2.2,11.3-.1,1-1,1.7-1.9,1.7Z"/>
    <path class="st0" d="M218.3,300h0c-3.5,0-7.1,0-10.7,0-3.5,0-7.1,0-10.6,0h0c-1,0-1.8-.7-1.9-1.7-2.1-18.1-4.2-36.2-6.3-54.3l-6.3,54.3c-.1,1-.9,1.7-1.9,1.7h-23.1c-.6,0-1.1-.2-1.5-.7-.4-.4-.5-1-.4-1.6.3-1.7.4-5-1.4-8.4-2.1-4-5.6-5.7-7-6.2-.8-.3-1.3-1.2-1.2-2,2-17.2,4-34.4,6-51.6.4-23.2.9-46.4,1.3-69.6h0c0-1.2.9-2.1,2-2,1.1,0,1.9.9,1.9,2h0c-.4,23.4-.9,46.6-1.3,69.8,0,0,0,.1,0,.2-2,16.8-3.9,33.5-5.9,50.3,2.2,1.1,5.5,3.3,7.7,7.4,1.7,3.2,2.1,6.3,2,8.5h19.3l7.8-66.7c.1-1,.9-1.7,1.9-1.7h.6c1,0,1.8.7,1.9,1.7l1.3,11.1c2.2,18.5,4.3,37.1,6.5,55.6,3.3,0,6.6,0,9.8,0,2.5,0,5,0,7.6,0,0-.3,0-.6,0-.9.2-4.7,2.2-8,3.1-9.2,1.6-2.3,3.5-3.7,4.8-4.5,1.1-.7,2.3-1.2,3.6-1.6l-5.7-49c-.2-.3-.4-.7-.4-1.1l-1.6-70.3c0-1.1.8-2,1.9-2,1.1,0,2,.8,2,1.9l1.6,69.3c.1.2.2.5.3.8l6,51.7c.1,1-.6,2-1.6,2.1-1.4.3-2.8.8-4,1.5-1.4.8-2.7,2-3.7,3.4-.5.7-2.2,3.4-2.4,7.1,0,.8,0,1.6.1,2.5,0,.6,0,1.1-.5,1.6-.4.4-.9.7-1.5.7Z"/>
    <path class="st0" d="M230.5,124.5c-.6,0-1.2-.3-1.5-.8-.7-.9-.5-2.1.3-2.7,1.7-1.3,3.5-2.2,5.6-2.7,1.5-.4,3-.5,4.6-.4,1.1,0,1.9,1,1.8,2.1s-1,1.9-2.1,1.8c-1.1,0-2.3,0-3.4.3-1.5.4-2.9,1.1-4.1,2-.4.3-.8.4-1.2.4Z"/>
    <path class="st0" d="M136,117.3c-.9,0-1.7-.6-1.9-1.6-.2-1.1.5-2.1,1.5-2.3,3.5-.7,7.1-1.3,10.7-1.7,3.5-.4,7-.7,10.5-.9,1.1,0,2,.8,2.1,1.8,0,1.1-.8,2-1.8,2.1-3.4.2-6.8.5-10.2.9-3.5.4-7,1-10.4,1.7-.1,0-.3,0-.4,0Z"/>
    <path class="st0" d="M69,132.6c-.8,0-1.6-.5-1.9-1.3,0-.3-2-6.3,2.1-11.1,3.1-3.6,7.3-3.9,8.5-3.9,1,0,2,.8,2,1.9,0,1.1-.8,2-1.9,2-.6,0-3.6.2-5.6,2.6-2.7,3.1-1.4,7.3-1.4,7.3.3,1-.2,2.1-1.3,2.5-.2,0-.4,0-.6,0Z"/>
    <path class="st0" d="M304.2,135.6c-.1,0-.2,0-.4,0-1.1-.2-1.8-1.2-1.5-2.3.2-.8.3-2.4-.5-4.2-1.1-2.3-3.2-3.2-3.8-3.4-1-.4-1.5-1.5-1.2-2.5.4-1,1.5-1.5,2.5-1.2,1.2.5,4.3,1.9,5.9,5.4,1.3,2.7,1.1,5.3.8,6.6-.2.9-1,1.6-1.9,1.6Z"/>
    <path class="st0" d="M222.2,161c-.5,0-1-.2-1.3-.5-2.2-2-3.7-4.7-4.5-7.7l-4.8-3c-.9-.6-1.2-1.8-.6-2.7.6-.9,1.8-1.2,2.7-.6l5.5,3.4c.5.3.8.7.9,1.3.5,2.5,1.8,4.8,3.6,6.5.8.7.8,2,.1,2.8-.4.4-.9.6-1.4.6Z"/>
    <path class="st0" d="M229.4,164c-.2,0-.3,0-.5,0-2.9-.1-5.7-1.4-8-3.5-.8-.7-.8-2-.1-2.8s2-.8,2.8-.1c1.6,1.5,3.6,2.4,5.5,2.5,4.6.2,7.8-4.1,9-5.9.9-1.4,3.6-5.8,1.6-9.9-1.5-3.1-5.1-4.9-9.1-4.7-.6,0-1.2-.2-1.6-.7l-4.2-4.8c-.7-.8-.6-2,.2-2.8.8-.7,2-.6,2.8.2l3.6,4.1c5.2,0,9.7,2.7,11.9,6.9,2,4,1.4,8.7-1.7,13.7-3.1,5-7.4,7.8-12,7.8Z"/>
    <path class="st0" d="M148.4,164.8c-4.5,0-8.8-2.8-12-7.8-3.2-5.1-3.8-9.7-1.7-13.7,2.1-4.2,6.7-6.8,11.9-6.9l3.6-4.1c.7-.8,1.9-.9,2.8-.2.8.7.9,1.9.2,2.8l-4.2,4.8c-.4.4-1,.7-1.6.7-4-.2-7.6,1.6-9.1,4.7-2.1,4.1.7,8.5,1.5,9.9,1.2,1.9,4.4,6.1,9,5.9,4.2-.2,8.1-4,9.1-8.9.1-.5.4-1,.9-1.3l5.5-3.4c.9-.6,2.1-.3,2.7.6.6.9.3,2.1-.6,2.7l-4.8,3c-1.7,6.4-6.7,10.9-12.5,11.2-.2,0-.3,0-.5,0Z"/>
    <path class="st0" d="M55.6,167.5c-.7,0-1.4-.4-1.8-1.1l-11-22.5c-.5-1,0-2.1.9-2.6,1-.5,2.1,0,2.6.9l11,22.5c.5,1,0,2.1-.9,2.6-.3.1-.6.2-.9.2Z"/>
    <path class="st0" d="M140.7,207.6h-68.6c-1.1,0-2-.9-2-2s.9-2,2-2h68.6c1.1,0,2,.9,2,2s-.9,2-2,2Z"/>
    <path class="st0" d="M104.4,281s0,0,0,0l-34.6-1c-1.1,0-1.9-.9-1.9-2,0-1.1.9-1.9,2-1.9l34.6,1c1.1,0,1.9.9,1.9,2,0,1.1-.9,1.9-2,1.9Z"/>
    <path class="st0" d="M108.2,281.4c-1,0-1.9-.8-1.9-1.8,0-1.1.7-2,1.8-2.1l34.6-2.2c1.1,0,2,.7,2.1,1.8,0,1.1-.7,2-1.8,2.1l-34.6,2.2s0,0-.1,0Z"/>
    <path class="st0" d="M185.1,260.7s0,0-.1,0l-34.5-2.4c-1.1,0-1.9-1-1.8-2.1,0-1.1,1-1.9,2.1-1.8l34.5,2.4c1.1,0,1.9,1,1.8,2.1,0,1-.9,1.8-1.9,1.8Z"/>
    <path class="st0" d="M192.5,260.3c-1,0-1.9-.8-1.9-1.8,0-1.1.8-2,1.8-2.1l34.5-2c1.1,0,2,.8,2.1,1.8s-.8,2-1.8,2.1l-34.5,2s0,0-.1,0Z"/>
    <path class="st0" d="M154.1,214.3c-1.1,0-2-.9-2-2s.9-2,2-2h69.1s0,0,0,0c1.1,0,2,.9,2,2s-.9,2-2,2h-69.1s0,0,0,0Z"/>
    <path class="st0" d="M320.9,170.8c-.3,0-.6,0-.8-.2-1-.5-1.4-1.6-1-2.6l10.2-22.3c.5-1,1.6-1.4,2.6-1,1,.5,1.4,1.6,1,2.6l-10.2,22.3c-.3.7-1,1.1-1.8,1.1Z"/>
    <path class="st0" d="M303.6,210.5h-67.1c-1.1,0-2-.9-2-2s.9-2,2-2h67.1c1.1,0,2,.9,2,2s-.9,2-2,2Z"/>
    <path class="st0" d="M265.7,283s0,0,0,0l-32.8-.6c-1.1,0-1.9-.9-1.9-2,0-1.1.9-2,2-1.9l32.8.6c1.1,0,1.9.9,1.9,2,0,1.1-.9,1.9-2,1.9Z"/>
    <path class="st0" d="M306.1,282.4h-34.6c-1.1-.1-1.9-1-1.9-2.1,0-1.1.9-1.9,2-1.9h34.6c1.1.1,1.9,1,1.9,2.1,0,1.1-.9,1.9-2,1.9Z"/>
    <path class="st0" d="M106,112.4c-.5,0-1-.2-1.4-.6l-4.9-4.9c-.8-.8-.8-2,0-2.8.8-.8,2-.8,2.8,0l3.6,3.6,3.7-3.3c.8-.7,2-.6,2.8.2.7.8.6,2-.2,2.8l-5.1,4.5c-.4.3-.8.5-1.3.5Z"/>
    <path class="st0" d="M188.2,141.6s0,0-.1,0c-3.1-.1-5.6-4.9-5.8-11,0-.5.2-1,.5-1.4.4-.4.9-.6,1.4-.6h8.6c.6,0,1.1.2,1.4.6.4.4.6,1,.5,1.5-.6,6.3-3.4,10.9-6.6,10.9ZM188.4,137.7h0ZM186.3,132.4c.4,2.8,1.4,4.6,1.9,5.2.6-.5,1.7-2.2,2.3-5.2h-4.2Z"/>
    <path class="st0" d="M269.1,127.2c-3.7,0-7.3-1.6-9.9-4.5-2.6-2.9-3.9-6.9-3.5-10.8.1-1,.9-1.7,1.9-1.7h22.9c1,0,1.8.8,1.9,1.7.4,3.9-.9,7.8-3.5,10.8-2.6,2.9-6.2,4.5-9.9,4.5ZM259.5,114.1c.2,2.2,1,4.3,2.5,6,1.8,2,4.4,3.2,7,3.2s5.2-1.2,7-3.2c1.5-1.7,2.4-3.8,2.5-6h-19.1Z"/>
  </g>
  <path class="st0" d="M310.8,89.1c-.2,0-.4,0-.6,0-1-.3-1.6-1.4-1.3-2.5l3.2-10.2c.3-1,1.4-1.6,2.5-1.3,1,.3,1.6,1.4,1.3,2.5l-3.2,10.2c-.3.8-1,1.4-1.9,1.4Z"/>
  <path class="st0" d="M314.4,94.4c-.6,0-1.2-.3-1.6-.8-.6-.9-.5-2.1.4-2.7l12.3-9.2c.9-.6,2.1-.5,2.7.4.6.9.5,2.1-.4,2.7l-12.3,9.2c-.4.3-.8.4-1.2.4Z"/>
  <path class="st0" d="M316.9,99.2c-1,0-1.8-.7-1.9-1.7-.2-1.1.6-2.1,1.7-2.2l9.3-1.3c1.1-.2,2.1.6,2.2,1.7.2,1.1-.6,2.1-1.7,2.2l-9.3,1.3c0,0-.2,0-.3,0Z"/>
  <path class="st0" d="M44.6,120c-1,0-1.8-.7-1.9-1.7-.1-1.1.6-2,1.7-2.2l15.9-1.9c1.1-.1,2,.6,2.2,1.7.1,1.1-.6,2-1.7,2.2l-15.9,1.9c0,0-.2,0-.2,0Z"/>
  <path class="st0" d="M60.1,110.4c0,0-.2,0-.2,0l-7.5-.9c-1.1-.1-1.8-1.1-1.7-2.2.1-1.1,1.1-1.8,2.2-1.7l7.5.9c1.1.1,1.8,1.1,1.7,2.2-.1,1-1,1.7-1.9,1.7Z"/>
  <path class="st0" d="M57,131.7c-.4,0-.8-.1-1.1-.3-.9-.6-1.1-1.8-.5-2.7l6-8.7c.6-.9,1.8-1.1,2.7-.5.9.6,1.1,1.8.5,2.7l-6,8.7c-.4.5-1,.8-1.6.8Z"/>
</svg>