<?xml version="1.0" encoding="UTF-8"?>
<svg id="_레이어_1" data-name="레이어_1" xmlns="http://www.w3.org/2000/svg" version="1.1" viewBox="0 0 375.7 344.4">
  <!-- Generator: Adobe Illustrator 29.4.0, SVG Export Plug-In . SVG Version: 2.1.0 Build 152)  -->
  <defs>
    <style>
      .st0 {
        fill: #f40084;
      }
    </style>
  </defs>
  <path class="st0" d="M130.9,155.7s0,0,0,0c-3.8-.2-9.3-1.3-13.5-5.8-3.1-3.3-4.6-8-4.6-13.8s1.7-10.7,5.1-13.9c3.7-3.5,8.6-4.4,12.6-4.3,6.9-26,30.2-44,57.3-44s50.4,18,57.3,44c3.7,0,9,.6,12.9,4.2,3.4,3.1,5.1,7.8,5.1,13.9,0,16.7-12.7,19.2-18.2,19.5-1.2,0-2.2-.9-2.3-2,0-1.2.9-2.2,2-2.3,6.4-.4,14.1-3.3,14.1-15.2s-1.3-8.5-3.7-10.7c-3.4-3.2-8.6-3.2-11.4-3-1.1,0-2.1-.6-2.3-1.7-5.8-24.9-27.8-42.4-53.5-42.4s-47.6,17.4-53.5,42.4c-.2,1-1.2,1.8-2.3,1.7-2.7-.2-7.8,0-11.2,3.1-2.4,2.3-3.7,5.9-3.7,10.7s1.2,8.3,3.5,10.9c3.2,3.4,7.4,4.3,10.4,4.4,1.2,0,2.1,1.1,2.1,2.3,0,1.2-1,2.1-2.2,2.1Z"/>
  <path class="st0" d="M194.1,77.8h-12.4c-10.1,0-18.4-8.2-18.4-18.4s8.2-18.4,18.4-18.4h12.4c10.1,0,18.4,8.2,18.4,18.4s-8.2,18.4-18.4,18.4ZM181.7,45.4c-7.7,0-14,6.3-14,14s6.3,14,14,14h12.4c7.7,0,14-6.3,14-14s-6.3-14-14-14h-12.4Z"/>
  <rect class="st0" x="172" y="126.4" width="5.5" height="11" rx="2.8" ry="2.8"/>
  <rect class="st0" x="198.6" y="126.4" width="5.5" height="11" rx="2.8" ry="2.8"/>
  <rect class="st0" x="186.6" y="134.7" width="3.1" height="4.3" rx="1.5" ry="1.5" transform="translate(414.4 83) rotate(130.6)"/>
  <path class="st0" d="M178.6,99.3c-1.2,0-2.2-1-2.2-2.2v-19.2c0-1.2,1-2.2,2.2-2.2s2.2,1,2.2,2.2v19.2c0,1.2-1,2.2-2.2,2.2Z"/>
  <path class="st0" d="M187.9,97.7c-1.2,0-2.2-1-2.2-2.2v-19.2c0-1.2,1-2.2,2.2-2.2s2.2,1,2.2,2.2v19.2c0,1.2-1,2.2-2.2,2.2Z"/>
  <path class="st0" d="M197.2,99.3c-1.2,0-2.2-1-2.2-2.2v-19.2c0-1.2,1-2.2,2.2-2.2s2.2,1,2.2,2.2v19.2c0,1.2-1,2.2-2.2,2.2Z"/>
  <path class="st0" d="M264.3,206.2H111.4c-1.2,0-2.2-1-2.2-2.2v-29.5c0-1.2,1-2.2,2.2-2.2h152.9c1.2,0,2.2,1,2.2,2.2v29.5c0,1.2-1,2.2-2.2,2.2ZM113.6,201.9h148.5v-25.1H113.6v25.1Z"/>
  <path class="st0" d="M252.7,303.4H123c-1.2,0-2.2-1-2.2-2.2v-97.2c0-1.2,1-2.2,2.2-2.2h129.6c1.2,0,2.2,1,2.2,2.2v97.2c0,1.2-1,2.2-2.2,2.2ZM125.2,299h125.3v-92.8h-125.3v92.8Z"/>
  <path class="st0" d="M248.1,176.7h-60.2c-.9,0-1.7-.5-2-1.4s-.1-1.8.5-2.4c.1,0,10.4-9.7,21.9-18,16.4-11.9,27-15.4,32.3-10.7,11.4,9.8,9.8,29.6,9.7,30.5,0,1.1-1,2-2.2,2ZM193.5,172.4h52.5c0-5-.5-18.1-8.3-24.8-5.8-5-28,10.5-44.2,24.8Z"/>
  <path class="st0" d="M127.6,176.7c-1.1,0-2.1-.9-2.2-2,0-.8-1.6-20.6,9.7-30.5,5.4-4.6,15.9-1.1,32.3,10.7,11.5,8.3,21.8,17.9,21.9,18,.7.6.9,1.6.5,2.4s-1.1,1.4-2,1.4h-60.2ZM141.1,146.6c-1.3,0-2.3.3-3.1,1-7.8,6.7-8.4,19.9-8.3,24.9h52.5c-14.1-12.4-32.7-25.8-41.1-25.8Z"/>
  <path class="st0" d="M113,233.7c-5,0-8.5-2.5-9.8-3.5-6.7-4.8-11.9-14.8-8.2-23.9,4.1-10,15.6-11.6,16.1-11.7,1.2-.2,2.3.7,2.4,1.9.2,1.2-.7,2.3-1.9,2.4,0,0-9.5,1.3-12.7,9-3.2,7.8,2.4,15.6,6.7,18.7,1.2.9,4.1,3,8.1,2.6,4-.3,6.6-2.8,7.6-3.8.8-.9,2.2-.9,3.1-.1.9.8.9,2.2.1,3.1-1.3,1.4-4.9,4.8-10.4,5.2-.4,0-.8,0-1.2,0Z"/>
  <path class="st0" d="M262.7,233.7c-.4,0-.8,0-1.2,0-5.5-.4-9.1-3.8-10.4-5.2-.8-.9-.8-2.3.1-3.1.9-.8,2.3-.8,3.1.1,1,1,3.6,3.5,7.6,3.8,4,.3,6.9-1.8,8.1-2.6,4.3-3.1,9.9-10.8,6.7-18.7-3.2-7.7-12.6-9-12.7-9-1.2-.2-2-1.2-1.9-2.4.2-1.2,1.2-2,2.4-1.9.5,0,12,1.6,16.1,11.7,3.7,9.1-1.4,19.1-8.2,23.9-1.4,1-4.9,3.5-9.8,3.5Z"/>
  <path class="st0" d="M188.3,157.8c-.6,0-1.1-.2-1.5-.6l-7.3-7.3c-.8-.8-.8-2.2,0-3.1.8-.8,2.2-.8,3.1,0l5.8,5.8,6.6-6.6c.8-.8,2.2-.8,3.1,0,.8.8.8,2.2,0,3.1l-8.1,8.1c-.4.4-1,.6-1.5.6Z"/>
  <path class="st0" d="M206.5,206.2h-36.8c-1.2,0-2.2-1-2.2-2.2v-29.5c0-1.2,1-2.2,2.2-2.2h36.8c1.2,0,2.2,1,2.2,2.2v29.5c0,1.2-1,2.2-2.2,2.2ZM171.9,201.9h32.4v-25.1h-32.4v25.1Z"/>
  <path class="st0" d="M201.4,303.4h-26.6c-1.2,0-2.2-1-2.2-2.2v-97.2c0-1.2,1-2.2,2.2-2.2h26.6c1.2,0,2.2,1,2.2,2.2v97.2c0,1.2-1,2.2-2.2,2.2ZM177,299h22.3v-92.8h-22.3v92.8Z"/>
</svg>